<svg xmlns="http://www.w3.org/2000/svg" width="400" height="200"><rect width="400" height="200" x="0" y="0" fill="#FFFFFF" id="backgorund"/><g id="viz"><g transform="translate(0,0)"><g transform="translate(10,20)"><g><path fill="rgb(239, 237, 245)" d="M0,95.62854266666668C21.11111111111111,95.62854266666668,21.11111111111111,160,42.22222222222222,160C63.33333333333333,160,63.33333333333333,160,84.44444444444444,160C105.55555555555554,160,105.55555555555554,160,126.66666666666666,160C147.77777777777777,160,147.77777777777777,160,168.88888888888889,160C190,160,190,160,211.11111111111111,160C232.22222222222223,160,232.22222222222223,160,253.33333333333331,160C274.44444444444446,160,274.44444444444446,160,295.55555555555554,160C316.66666666666663,160,316.66666666666663,160,337.77777777777777,160C358.8888888888889,160,358.8888888888889,160,380,160L380,160C358.8888888888889,160,358.8888888888889,160,337.77777777777777,160C316.66666666666663,160,316.66666666666663,160,295.55555555555554,160C274.44444444444446,160,274.44444444444446,160,253.33333333333331,160C232.22222222222223,160,232.22222222222223,160,211.11111111111111,160C190,160,190,160,168.88888888888889,160C147.77777777777777,160,147.77777777777777,160,126.66666666666666,160C105.55555555555554,160,105.55555555555554,160,84.44444444444444,160C63.33333333333333,160,63.33333333333333,160,42.22222222222222,160C21.11111111111111,160,21.11111111111111,160,0,160Z"><title>482785.93</title></path><path fill="rgb(232, 226, 241)" d="M0,160C21.11111111111111,160,21.11111111111111,91.028872,42.22222222222222,91.028872C63.33333333333333,91.028872,63.33333333333333,160,84.44444444444444,160C105.55555555555554,160,105.55555555555554,160,126.66666666666666,160C147.77777777777777,160,147.77777777777777,160,168.88888888888889,160C190,160,190,160,211.11111111111111,160C232.22222222222223,160,232.22222222222223,160,253.33333333333331,160C274.44444444444446,160,274.44444444444446,160,295.55555555555554,160C316.66666666666663,160,316.66666666666663,160,337.77777777777777,160C358.8888888888889,160,358.8888888888889,160,380,160L380,160C358.8888888888889,160,358.8888888888889,160,337.77777777777777,160C316.66666666666663,160,316.66666666666663,160,295.55555555555554,160C274.44444444444446,160,274.44444444444446,160,253.33333333333331,160C232.22222222222223,160,232.22222222222223,160,211.11111111111111,160C190,160,190,160,168.88888888888889,160C147.77777777777777,160,147.77777777777777,160,126.66666666666666,160C105.55555555555554,160,105.55555555555554,160,84.44444444444444,160C63.33333333333333,160,63.33333333333333,160,42.22222222222222,160C21.11111111111111,160,21.11111111111111,160,0,160Z"><title>517283.45999999996</title></path><path fill="rgb(210, 195, 228)" d="M0,160C21.11111111111111,160,21.11111111111111,160,42.22222222222222,160C63.33333333333333,160,63.33333333333333,77.54932799999999,84.44444444444444,77.54932799999999C105.55555555555554,77.54932799999999,105.55555555555554,160,126.66666666666666,160C147.77777777777777,160,147.77777777777777,160,168.88888888888889,160C190,160,190,160,211.11111111111111,160C232.22222222222223,160,232.22222222222223,160,253.33333333333331,160C274.44444444444446,160,274.44444444444446,160,295.55555555555554,160C316.66666666666663,160,316.66666666666663,160,337.77777777777777,160C358.8888888888889,160,358.8888888888889,160,380,160L380,160C358.8888888888889,160,358.8888888888889,160,337.77777777777777,160C316.66666666666663,160,316.66666666666663,160,295.55555555555554,160C274.44444444444446,160,274.44444444444446,160,253.33333333333331,160C232.22222222222223,160,232.22222222222223,160,211.11111111111111,160C190,160,190,160,168.88888888888889,160C147.77777777777777,160,147.77777777777777,160,126.66666666666666,160C105.55555555555554,160,105.55555555555554,160,84.44444444444444,160C63.33333333333333,160,63.33333333333333,160,42.22222222222222,160C21.11111111111111,160,21.11111111111111,160,0,160Z"><title>618380.04</title></path><path fill="rgb(207, 191, 227)" d="M0,160C21.11111111111111,160,21.11111111111111,160,42.22222222222222,160C63.33333333333333,160,63.33333333333333,160,84.44444444444444,160C105.55555555555554,160,105.55555555555554,75.58402799999999,126.66666666666666,75.58402799999999C147.77777777777777,75.58402799999999,147.77777777777777,160,168.88888888888889,160C190,160,190,160,211.11111111111111,160C232.22222222222223,160,232.22222222222223,160,253.33333333333331,160C274.44444444444446,160,274.44444444444446,160,295.55555555555554,160C316.66666666666663,160,316.66666666666663,160,337.77777777777777,160C358.8888888888889,160,358.8888888888889,160,380,160L380,160C358.8888888888889,160,358.8888888888889,160,337.77777777777777,160C316.66666666666663,160,316.66666666666663,160,295.55555555555554,160C274.44444444444446,160,274.44444444444446,160,253.33333333333331,160C232.22222222222223,160,232.22222222222223,160,211.11111111111111,160C190,160,190,160,168.88888888888889,160C147.77777777777777,160,147.77777777777777,160,126.66666666666666,160C105.55555555555554,160,105.55555555555554,160,84.44444444444444,160C63.33333333333333,160,63.33333333333333,160,42.22222222222222,160C21.11111111111111,160,21.11111111111111,160,0,160Z"><title>633119.79</title></path><path fill="rgb(184, 159, 214)" d="M0,160C21.11111111111111,160,21.11111111111111,160,42.22222222222222,160C63.33333333333333,160,63.33333333333333,160,84.44444444444444,160C105.55555555555554,160,105.55555555555554,160,126.66666666666666,160C147.77777777777777,160,147.77777777777777,61.47731733333334,168.88888888888889,61.47731733333334C190,61.47731733333334,190,160,211.11111111111111,160C232.22222222222223,160,232.22222222222223,160,253.33333333333331,160C274.44444444444446,160,274.44444444444446,160,295.55555555555554,160C316.66666666666663,160,316.66666666666663,160,337.77777777777777,160C358.8888888888889,160,358.8888888888889,160,380,160L380,160C358.8888888888889,160,358.8888888888889,160,337.77777777777777,160C316.66666666666663,160,316.66666666666663,160,295.55555555555554,160C274.44444444444446,160,274.44444444444446,160,253.33333333333331,160C232.22222222222223,160,232.22222222222223,160,211.11111111111111,160C190,160,190,160,168.88888888888889,160C147.77777777777777,160,147.77777777777777,160,126.66666666666666,160C105.55555555555554,160,105.55555555555554,160,84.44444444444444,160C63.33333333333333,160,63.33333333333333,160,42.22222222222222,160C21.11111111111111,160,21.11111111111111,160,0,160Z"><title>738920.12</title></path><path fill="rgb(192, 170, 218)" d="M0,160C21.11111111111111,160,21.11111111111111,160,42.22222222222222,160C63.33333333333333,160,63.33333333333333,160,84.44444444444444,160C105.55555555555554,160,105.55555555555554,160,126.66666666666666,160C147.77777777777777,160,147.77777777777777,160,168.88888888888889,160C190,160,190,66.351436,211.11111111111111,66.351436C232.22222222222223,66.351436,232.22222222222223,160,253.33333333333331,160C274.44444444444446,160,274.44444444444446,160,295.55555555555554,160C316.66666666666663,160,316.66666666666663,160,337.77777777777777,160C358.8888888888889,160,358.8888888888889,160,380,160L380,160C358.8888888888889,160,358.8888888888889,160,337.77777777777777,160C316.66666666666663,160,316.66666666666663,160,295.55555555555554,160C274.44444444444446,160,274.44444444444446,160,253.33333333333331,160C232.22222222222223,160,232.22222222222223,160,211.11111111111111,160C190,160,190,160,168.88888888888889,160C147.77777777777777,160,147.77777777777777,160,126.66666666666666,160C105.55555555555554,160,105.55555555555554,160,84.44444444444444,160C63.33333333333333,160,63.33333333333333,160,42.22222222222222,160C21.11111111111111,160,21.11111111111111,160,0,160Z"><title>702364.23</title></path><path fill="rgb(170, 139, 206)" d="M0,160C21.11111111111111,160,21.11111111111111,160,42.22222222222222,160C63.33333333333333,160,63.33333333333333,160,84.44444444444444,160C105.55555555555554,160,105.55555555555554,160,126.66666666666666,160C147.77777777777777,160,147.77777777777777,160,168.88888888888889,160C190,160,190,160,211.11111111111111,160C232.22222222222223,160,232.22222222222223,53.07830933333334,253.33333333333331,53.07830933333334C274.44444444444446,53.07830933333334,274.44444444444446,160,295.55555555555554,160C316.66666666666663,160,316.66666666666663,160,337.77777777777777,160C358.8888888888889,160,358.8888888888889,160,380,160L380,160C358.8888888888889,160,358.8888888888889,160,337.77777777777777,160C316.66666666666663,160,316.66666666666663,160,295.55555555555554,160C274.44444444444446,160,274.44444444444446,160,253.33333333333331,160C232.22222222222223,160,232.22222222222223,160,211.11111111111111,160C190,160,190,160,168.88888888888889,160C147.77777777777777,160,147.77777777777777,160,126.66666666666666,160C105.55555555555554,160,105.55555555555554,160,84.44444444444444,160C63.33333333333333,160,63.33333333333333,160,42.22222222222222,160C21.11111111111111,160,21.11111111111111,160,0,160Z"><title>801912.68</title></path><path fill="rgb(124, 73, 180)" d="M0,160C21.11111111111111,160,21.11111111111111,160,42.22222222222222,160C63.33333333333333,160,63.33333333333333,160,84.44444444444444,160C105.55555555555554,160,105.55555555555554,160,126.66666666666666,160C147.77777777777777,160,147.77777777777777,160,168.88888888888889,160C190,160,190,160,211.11111111111111,160C232.22222222222223,160,232.22222222222223,160,253.33333333333331,160C274.44444444444446,160,274.44444444444446,24.36662666666667,295.55555555555554,24.36662666666667C316.66666666666663,24.36662666666667,316.66666666666663,160,337.77777777777777,160C358.8888888888889,160,358.8888888888889,160,380,160L380,160C358.8888888888889,160,358.8888888888889,160,337.77777777777777,160C316.66666666666663,160,316.66666666666663,160,295.55555555555554,160C274.44444444444446,160,274.44444444444446,160,253.33333333333331,160C232.22222222222223,160,232.22222222222223,160,211.11111111111111,160C190,160,190,160,168.88888888888889,160C147.77777777777777,160,147.77777777777777,160,126.66666666666666,160C105.55555555555554,160,105.55555555555554,160,84.44444444444444,160C63.33333333333333,160,63.33333333333333,160,42.22222222222222,160C21.11111111111111,160,21.11111111111111,160,0,160Z"><title>1017250.2999999999</title></path><path fill="rgb(128, 80, 182)" d="M0,160C21.11111111111111,160,21.11111111111111,160,42.22222222222222,160C63.33333333333333,160,63.33333333333333,160,84.44444444444444,160C105.55555555555554,160,105.55555555555554,160,126.66666666666666,160C147.77777777777777,160,147.77777777777777,160,168.88888888888889,160C190,160,190,160,211.11111111111111,160C232.22222222222223,160,232.22222222222223,160,253.33333333333331,160C274.44444444444446,160,274.44444444444446,160,295.55555555555554,160C316.66666666666663,160,316.66666666666663,27.29724666666666,337.77777777777777,27.29724666666666C358.8888888888889,27.29724666666666,358.8888888888889,160,380,160L380,160C358.8888888888889,160,358.8888888888889,160,337.77777777777777,160C316.66666666666663,160,316.66666666666663,160,295.55555555555554,160C274.44444444444446,160,274.44444444444446,160,253.33333333333331,160C232.22222222222223,160,232.22222222222223,160,211.11111111111111,160C190,160,190,160,168.88888888888889,160C147.77777777777777,160,147.77777777777777,160,126.66666666666666,160C105.55555555555554,160,105.55555555555554,160,84.44444444444444,160C63.33333333333333,160,63.33333333333333,160,42.22222222222222,160C21.11111111111111,160,21.11111111111111,160,0,160Z"><title>995270.65</title></path><path fill="rgb(103, 44, 168)" d="M0,160C21.11111111111111,160,21.11111111111111,160,42.22222222222222,160C63.33333333333333,160,63.33333333333333,160,84.44444444444444,160C105.55555555555554,160,105.55555555555554,160,126.66666666666666,160C147.77777777777777,160,147.77777777777777,160,168.88888888888889,160C190,160,190,160,211.11111111111111,160C232.22222222222223,160,232.22222222222223,160,253.33333333333331,160C274.44444444444446,160,274.44444444444446,160,295.55555555555554,160C316.66666666666663,160,316.66666666666663,160,337.77777777777777,160C358.8888888888889,160,358.8888888888889,11.56525199999999,380,11.56525199999999L380,160C358.8888888888889,160,358.8888888888889,160,337.77777777777777,160C316.66666666666663,160,316.66666666666663,160,295.55555555555554,160C274.44444444444446,160,274.44444444444446,160,253.33333333333331,160C232.22222222222223,160,232.22222222222223,160,211.11111111111111,160C190,160,190,160,168.88888888888889,160C147.77777777777777,160,147.77777777777777,160,126.66666666666666,160C105.55555555555554,160,105.55555555555554,160,84.44444444444444,160C63.33333333333333,160,63.33333333333333,160,42.22222222222222,160C21.11111111111111,160,21.11111111111111,160,0,160Z"><title>1113260.61</title></path></g><g id="xAxis" transform="translate(0,160)" fill="none" font-size="10" font-family="sans-serif" text-anchor="middle"><path class="domain" stroke="currentColor" d="M0,0H380"/><g class="tick" opacity="1" transform="translate(0,0)"><line stroke="currentColor" y2="6"/><text fill="currentColor" y="9" dy="0.71em">2,012</text></g><g class="tick" opacity="1" transform="translate(42.22222222222222,0)"><line stroke="currentColor" y2="6"/><text fill="currentColor" y="9" dy="0.71em">2,013</text></g><g class="tick" opacity="1" transform="translate(84.44444444444444,0)"><line stroke="currentColor" y2="6"/><text fill="currentColor" y="9" dy="0.71em">2,014</text></g><g class="tick" opacity="1" transform="translate(126.66666666666666,0)"><line stroke="currentColor" y2="6"/><text fill="currentColor" y="9" dy="0.71em">2,015</text></g><g class="tick" opacity="1" transform="translate(168.88888888888889,0)"><line stroke="currentColor" y2="6"/><text fill="currentColor" y="9" dy="0.71em">2,016</text></g><g class="tick" opacity="1" transform="translate(211.11111111111111,0)"><line stroke="currentColor" y2="6"/><text fill="currentColor" y="9" dy="0.71em">2,017</text></g><g class="tick" opacity="1" transform="translate(253.33333333333331,0)"><line stroke="currentColor" y2="6"/><text fill="currentColor" y="9" dy="0.71em">2,018</text></g><g class="tick" opacity="1" transform="translate(295.55555555555554,0)"><line stroke="currentColor" y2="6"/><text fill="currentColor" y="9" dy="0.71em">2,019</text></g><g class="tick" opacity="1" transform="translate(337.77777777777777,0)"><line stroke="currentColor" y2="6"/><text fill="currentColor" y="9" dy="0.71em">2,020</text></g><g class="tick" opacity="1" transform="translate(380,0)"><line stroke="currentColor" y2="6"/><text fill="currentColor" y="9" dy="0.71em">2,021</text></g></g><text y="156" x="380" text-anchor="end" style="font-family: Arial, sans-serif; font-size: 12px; fill: rgb(123, 123, 123); font-weight: bold;">Year</text><text x="4" text-anchor="start" dominant-baseline="hanging" style="font-family: Arial, sans-serif; font-size: 12px; fill: rgb(123, 123, 123); font-weight: bold;">Value</text></g><text x="4" y="4" style="font-family: Arial, sans-serif; font-size: 12px; fill: black; font-weight: bold; dominant-baseline: hanging;"/></g></g></svg>