<svg xmlns="http://www.w3.org/2000/svg" width="905" height="300"><rect width="905" height="300" x="0" y="0" fill="#FFFFFF" id="backgorund"/><g id="viz"><g transform="translate(0,0)"><g transform="translate(10,20)"><g><path fill="rgb(239, 237, 245)" d="M0,154.39638183333335C49.166666666666664,154.39638183333335,49.166666666666664,260,98.33333333333333,260C147.5,260,147.5,260,196.66666666666666,260C245.83333333333331,260,245.83333333333331,260,295,260C344.16666666666663,260,344.16666666666663,260,393.3333333333333,260C442.5,260,442.5,260,491.6666666666667,260C540.8333333333334,260,540.8333333333334,260,590,260C639.1666666666667,260,639.1666666666667,260,688.3333333333334,260C737.5,260,737.5,260,786.6666666666666,260C835.8333333333333,260,835.8333333333333,260,885,260L885,260C835.8333333333333,260,835.8333333333333,260,786.6666666666666,260C737.5,260,737.5,260,688.3333333333334,260C639.1666666666667,260,639.1666666666667,260,590,260C540.8333333333334,260,540.8333333333334,260,491.6666666666667,260C442.5,260,442.5,260,393.3333333333333,260C344.16666666666663,260,344.16666666666663,260,295,260C245.83333333333331,260,245.83333333333331,260,196.66666666666666,260C147.5,260,147.5,260,98.33333333333333,260C49.166666666666664,260,49.166666666666664,259,0,259Z"><title>482785.93</title></path><path fill="rgb(232, 226, 241)" d="M0,260C49.166666666666664,260,49.166666666666664,146.92191700000004,98.33333333333333,146.92191700000004C147.5,146.92191700000004,147.5,260,196.66666666666666,260C245.83333333333331,260,245.83333333333331,260,295,260C344.16666666666663,260,344.16666666666663,260,393.3333333333333,260C442.5,260,442.5,260,491.6666666666667,260C540.8333333333334,260,540.8333333333334,260,590,260C639.1666666666667,260,639.1666666666667,260,688.3333333333334,260C737.5,260,737.5,260,786.6666666666666,260C835.8333333333333,260,835.8333333333333,260,885,260L885,260C835.8333333333333,260,835.8333333333333,260,786.6666666666666,260C737.5,260,737.5,260,688.3333333333334,260C639.1666666666667,260,639.1666666666667,260,590,260C540.8333333333334,260,540.8333333333334,260,491.6666666666667,260C442.5,260,442.5,260,393.3333333333333,260C344.16666666666663,260,344.16666666666663,260,295,260C245.83333333333331,260,245.83333333333331,260,196.66666666666666,260C147.5,260,147.5,259,98.33333333333333,259C49.166666666666664,259,49.166666666666664,260,0,260Z"><title>517283.45999999996</title></path><path fill="rgb(210, 195, 228)" d="M0,259C49.166666666666664,259,49.166666666666664,260,98.33333333333333,260C147.5,260,147.5,125.01765799999998,196.66666666666666,125.01765799999998C245.83333333333331,125.01765799999998,245.83333333333331,260,295,260C344.16666666666663,260,344.16666666666663,260,393.3333333333333,260C442.5,260,442.5,260,491.6666666666667,260C540.8333333333334,260,540.8333333333334,260,590,260C639.1666666666667,260,639.1666666666667,260,688.3333333333334,260C737.5,260,737.5,260,786.6666666666666,260C835.8333333333333,260,835.8333333333333,260,885,260L885,260C835.8333333333333,260,835.8333333333333,260,786.6666666666666,260C737.5,260,737.5,260,688.3333333333334,260C639.1666666666667,260,639.1666666666667,260,590,260C540.8333333333334,260,540.8333333333334,260,491.6666666666667,260C442.5,260,442.5,260,393.3333333333333,260C344.16666666666663,260,344.16666666666663,260,295,260C245.83333333333331,260,245.83333333333331,259,196.66666666666666,259C147.5,259,147.5,260,98.33333333333333,260C49.166666666666664,260,49.166666666666664,259,0,259Z"><title>618380.04</title></path><path fill="rgb(207, 191, 227)" d="M0,259C49.166666666666664,259,49.166666666666664,259,98.33333333333333,259C147.5,259,147.5,260,196.66666666666666,260C245.83333333333331,260,245.83333333333331,121.8240455,295,121.8240455C344.16666666666663,121.8240455,344.16666666666663,260,393.3333333333333,260C442.5,260,442.5,260,491.6666666666667,260C540.8333333333334,260,540.8333333333334,260,590,260C639.1666666666667,260,639.1666666666667,260,688.3333333333334,260C737.5,260,737.5,260,786.6666666666666,260C835.8333333333333,260,835.8333333333333,260,885,260L885,260C835.8333333333333,260,835.8333333333333,260,786.6666666666666,260C737.5,260,737.5,260,688.3333333333334,260C639.1666666666667,260,639.1666666666667,260,590,260C540.8333333333334,260,540.8333333333334,260,491.6666666666667,260C442.5,260,442.5,260,393.3333333333333,260C344.16666666666663,260,344.16666666666663,259,295,259C245.83333333333331,259,245.83333333333331,260,196.66666666666666,260C147.5,260,147.5,259,98.33333333333333,259C49.166666666666664,259,49.166666666666664,259,0,259Z"><title>633119.79</title></path><path fill="rgb(184, 159, 214)" d="M0,259C49.166666666666664,259,49.166666666666664,259,98.33333333333333,259C147.5,259,147.5,259,196.66666666666666,259C245.83333333333331,259,245.83333333333331,260,295,260C344.16666666666663,260,344.16666666666663,98.90064066666667,393.3333333333333,98.90064066666667C442.5,98.90064066666667,442.5,260,491.6666666666667,260C540.8333333333334,260,540.8333333333334,260,590,260C639.1666666666667,260,639.1666666666667,260,688.3333333333334,260C737.5,260,737.5,260,786.6666666666666,260C835.8333333333333,260,835.8333333333333,260,885,260L885,260C835.8333333333333,260,835.8333333333333,260,786.6666666666666,260C737.5,260,737.5,260,688.3333333333334,260C639.1666666666667,260,639.1666666666667,260,590,260C540.8333333333334,260,540.8333333333334,260,491.6666666666667,260C442.5,260,442.5,259,393.3333333333333,259C344.16666666666663,259,344.16666666666663,260,295,260C245.83333333333331,260,245.83333333333331,259,196.66666666666666,259C147.5,259,147.5,259,98.33333333333333,259C49.166666666666664,259,49.166666666666664,259,0,259Z"><title>738920.12</title></path><path fill="rgb(192, 170, 218)" d="M0,259C49.166666666666664,259,49.166666666666664,259,98.33333333333333,259C147.5,259,147.5,259,196.66666666666666,259C245.83333333333331,259,245.83333333333331,259,295,259C344.16666666666663,259,344.16666666666663,260,393.3333333333333,260C442.5,260,442.5,106.82108350000001,491.6666666666667,106.82108350000001C540.8333333333334,106.82108350000001,540.8333333333334,260,590,260C639.1666666666667,260,639.1666666666667,260,688.3333333333334,260C737.5,260,737.5,260,786.6666666666666,260C835.8333333333333,260,835.8333333333333,260,885,260L885,260C835.8333333333333,260,835.8333333333333,260,786.6666666666666,260C737.5,260,737.5,260,688.3333333333334,260C639.1666666666667,260,639.1666666666667,260,590,260C540.8333333333334,260,540.8333333333334,259,491.6666666666667,259C442.5,259,442.5,260,393.3333333333333,260C344.16666666666663,260,344.16666666666663,259,295,259C245.83333333333331,259,245.83333333333331,259,196.66666666666666,259C147.5,259,147.5,259,98.33333333333333,259C49.166666666666664,259,49.166666666666664,259,0,259Z"><title>702364.23</title></path><path fill="rgb(170, 139, 206)" d="M0,259C49.166666666666664,259,49.166666666666664,259,98.33333333333333,259C147.5,259,147.5,259,196.66666666666666,259C245.83333333333331,259,245.83333333333331,259,295,259C344.16666666666663,259,344.16666666666663,259,393.3333333333333,259C442.5,259,442.5,260,491.6666666666667,260C540.8333333333334,260,540.8333333333334,85.25225266666666,590,85.25225266666666C639.1666666666667,85.25225266666666,639.1666666666667,260,688.3333333333334,260C737.5,260,737.5,260,786.6666666666666,260C835.8333333333333,260,835.8333333333333,260,885,260L885,260C835.8333333333333,260,835.8333333333333,260,786.6666666666666,260C737.5,260,737.5,260,688.3333333333334,260C639.1666666666667,260,639.1666666666667,259,590,259C540.8333333333334,259,540.8333333333334,260,491.6666666666667,260C442.5,260,442.5,259,393.3333333333333,259C344.16666666666663,259,344.16666666666663,259,295,259C245.83333333333331,259,245.83333333333331,259,196.66666666666666,259C147.5,259,147.5,259,98.33333333333333,259C49.166666666666664,259,49.166666666666664,259,0,259Z"><title>801912.68</title></path><path fill="rgb(124, 73, 180)" d="M0,259C49.166666666666664,259,49.166666666666664,259,98.33333333333333,259C147.5,259,147.5,259,196.66666666666666,259C245.83333333333331,259,245.83333333333331,259,295,259C344.16666666666663,259,344.16666666666663,259,393.3333333333333,259C442.5,259,442.5,259,491.6666666666667,259C540.8333333333334,259,540.8333333333334,260,590,260C639.1666666666667,260,639.1666666666667,38.59576833333334,688.3333333333334,38.59576833333334C737.5,38.59576833333334,737.5,260,786.6666666666666,260C835.8333333333333,260,835.8333333333333,260,885,260L885,260C835.8333333333333,260,835.8333333333333,260,786.6666666666666,260C737.5,260,737.5,259,688.3333333333334,259C639.1666666666667,259,639.1666666666667,260,590,260C540.8333333333334,260,540.8333333333334,259,491.6666666666667,259C442.5,259,442.5,259,393.3333333333333,259C344.16666666666663,259,344.16666666666663,259,295,259C245.83333333333331,259,245.83333333333331,259,196.66666666666666,259C147.5,259,147.5,259,98.33333333333333,259C49.166666666666664,259,49.166666666666664,259,0,259Z"><title>1017250.2999999999</title></path><path fill="rgb(128, 80, 182)" d="M0,259C49.166666666666664,259,49.166666666666664,259,98.33333333333333,259C147.5,259,147.5,259,196.66666666666666,259C245.83333333333331,259,245.83333333333331,259,295,259C344.16666666666663,259,344.16666666666663,259,393.3333333333333,259C442.5,259,442.5,259,491.6666666666667,259C540.8333333333334,259,540.8333333333334,259,590,259C639.1666666666667,259,639.1666666666667,260,688.3333333333334,260C737.5,260,737.5,43.35802583333332,786.6666666666666,43.35802583333332C835.8333333333333,43.35802583333332,835.8333333333333,260,885,260L885,260C835.8333333333333,260,835.8333333333333,259,786.6666666666666,259C737.5,259,737.5,260,688.3333333333334,260C639.1666666666667,260,639.1666666666667,259,590,259C540.8333333333334,259,540.8333333333334,259,491.6666666666667,259C442.5,259,442.5,259,393.3333333333333,259C344.16666666666663,259,344.16666666666663,259,295,259C245.83333333333331,259,245.83333333333331,259,196.66666666666666,259C147.5,259,147.5,259,98.33333333333333,259C49.166666666666664,259,49.166666666666664,259,0,259Z"><title>995270.65</title></path><path fill="rgb(103, 44, 168)" d="M0,259C49.166666666666664,259,49.166666666666664,259,98.33333333333333,259C147.5,259,147.5,259,196.66666666666666,259C245.83333333333331,259,245.83333333333331,259,295,259C344.16666666666663,259,344.16666666666663,259,393.3333333333333,259C442.5,259,442.5,259,491.6666666666667,259C540.8333333333334,259,540.8333333333334,259,590,259C639.1666666666667,259,639.1666666666667,259,688.3333333333334,259C737.5,259,737.5,260,786.6666666666666,260C835.8333333333333,260,835.8333333333333,18.793534499999986,885,18.793534499999986L885,260C835.8333333333333,260,835.8333333333333,260,786.6666666666666,260C737.5,260,737.5,259,688.3333333333334,259C639.1666666666667,259,639.1666666666667,259,590,259C540.8333333333334,259,540.8333333333334,259,491.6666666666667,259C442.5,259,442.5,259,393.3333333333333,259C344.16666666666663,259,344.16666666666663,259,295,259C245.83333333333331,259,245.83333333333331,259,196.66666666666666,259C147.5,259,147.5,259,98.33333333333333,259C49.166666666666664,259,49.166666666666664,259,0,259Z"><title>1113260.61</title></path></g><g id="xAxis" transform="translate(0,260)" fill="none" font-size="10" font-family="sans-serif" text-anchor="middle"><path class="domain" stroke="currentColor" d="M0,0H885"/><g class="tick" opacity="1" transform="translate(0,0)"><line stroke="currentColor" y2="6"/><text fill="currentColor" y="9" dy="0.71em">2,012</text></g><g class="tick" opacity="1" transform="translate(98.33333333333333,0)"><line stroke="currentColor" y2="6"/><text fill="currentColor" y="9" dy="0.71em">2,013</text></g><g class="tick" opacity="1" transform="translate(196.66666666666666,0)"><line stroke="currentColor" y2="6"/><text fill="currentColor" y="9" dy="0.71em">2,014</text></g><g class="tick" opacity="1" transform="translate(295,0)"><line stroke="currentColor" y2="6"/><text fill="currentColor" y="9" dy="0.71em">2,015</text></g><g class="tick" opacity="1" transform="translate(393.3333333333333,0)"><line stroke="currentColor" y2="6"/><text fill="currentColor" y="9" dy="0.71em">2,016</text></g><g class="tick" opacity="1" transform="translate(491.6666666666667,0)"><line stroke="currentColor" y2="6"/><text fill="currentColor" y="9" dy="0.71em">2,017</text></g><g class="tick" opacity="1" transform="translate(590,0)"><line stroke="currentColor" y2="6"/><text fill="currentColor" y="9" dy="0.71em">2,018</text></g><g class="tick" opacity="1" transform="translate(688.3333333333334,0)"><line stroke="currentColor" y2="6"/><text fill="currentColor" y="9" dy="0.71em">2,019</text></g><g class="tick" opacity="1" transform="translate(786.6666666666666,0)"><line stroke="currentColor" y2="6"/><text fill="currentColor" y="9" dy="0.71em">2,020</text></g><g class="tick" opacity="1" transform="translate(885,0)"><line stroke="currentColor" y2="6"/><text fill="currentColor" y="9" dy="0.71em">2,021</text></g></g><text y="256" x="885" text-anchor="end" style="font-family: Arial, sans-serif; font-size: 12px; fill: rgb(123, 123, 123); font-weight: bold;">Year</text><text x="4" text-anchor="start" dominant-baseline="hanging" style="font-family: Arial, sans-serif; font-size: 12px; fill: rgb(123, 123, 123); font-weight: bold;">Value</text><g id="labels"><text x="0" y="207.69819091666668" text-anchor="start" alignment-baseline="middle" style="font-family: Arial, sans-serif; font-size: 10px; fill: black; font-weight: bold; stroke-width: 2px; paint-order: stroke; stroke: white; stroke-linecap: round; stroke-linejoin: round;">482785.93</text><text x="98.33333333333333" y="203.9609585" text-anchor="middle" alignment-baseline="middle" style="font-family: Arial, sans-serif; font-size: 10px; fill: black; font-weight: bold; stroke-width: 2px; paint-order: stroke; stroke: white; stroke-linecap: round; stroke-linejoin: round;">517283.45999999996</text><text x="196.66666666666666" y="193.008829" text-anchor="middle" alignment-baseline="middle" style="font-family: Arial, sans-serif; font-size: 10px; fill: black; font-weight: bold; stroke-width: 2px; paint-order: stroke; stroke: white; stroke-linecap: round; stroke-linejoin: round;">618380.04</text><text x="295" y="191.41202275" text-anchor="middle" alignment-baseline="middle" style="font-family: Arial, sans-serif; font-size: 10px; fill: black; font-weight: bold; stroke-width: 2px; paint-order: stroke; stroke: white; stroke-linecap: round; stroke-linejoin: round;">633119.79</text><text x="393.3333333333333" y="179.95032033333334" text-anchor="middle" alignment-baseline="middle" style="font-family: Arial, sans-serif; font-size: 10px; fill: black; font-weight: bold; stroke-width: 2px; paint-order: stroke; stroke: white; stroke-linecap: round; stroke-linejoin: round;">738920.12</text><text x="491.6666666666667" y="183.91054175" text-anchor="middle" alignment-baseline="middle" style="font-family: Arial, sans-serif; font-size: 10px; fill: black; font-weight: bold; stroke-width: 2px; paint-order: stroke; stroke: white; stroke-linecap: round; stroke-linejoin: round;">702364.23</text><text x="590" y="173.12612633333336" text-anchor="middle" alignment-baseline="middle" style="font-family: Arial, sans-serif; font-size: 10px; fill: black; font-weight: bold; stroke-width: 2px; paint-order: stroke; stroke: white; stroke-linecap: round; stroke-linejoin: round;">801912.68</text><text x="688.3333333333334" y="149.79788416666668" text-anchor="middle" alignment-baseline="middle" style="font-family: Arial, sans-serif; font-size: 10px; fill: black; font-weight: bold; stroke-width: 2px; paint-order: stroke; stroke: white; stroke-linecap: round; stroke-linejoin: round;">1017250.2999999999</text><text x="786.6666666666666" y="152.17901291666666" text-anchor="middle" alignment-baseline="middle" style="font-family: Arial, sans-serif; font-size: 10px; fill: black; font-weight: bold; stroke-width: 2px; paint-order: stroke; stroke: white; stroke-linecap: round; stroke-linejoin: round;">995270.65</text><text x="885" y="139.39676724999998" text-anchor="end" alignment-baseline="middle" style="font-family: Arial, sans-serif; font-size: 10px; fill: black; font-weight: bold; stroke-width: 2px; paint-order: stroke; stroke: white; stroke-linecap: round; stroke-linejoin: round;">1113260.61</text></g></g><text x="4" y="4" style="font-family: Arial, sans-serif; font-size: 12px; fill: black; font-weight: bold; dominant-baseline: hanging;"/></g></g></svg>