<svg xmlns="http://www.w3.org/2000/svg" width="950" height="650"><rect width="950" height="650" x="0" y="0" fill="#FFFFFF" id="backgorund"/><g id="viz"><clipPath id="serieClipPath"><rect x="-50" y="-10" width="950" height="650"/></clipPath><g transform="translate(0,0)"><g transform="translate(50,10)" clip-path="url(#serieClipPath)"><g id="axis"><g transform="translate(0,620)" fill="none" font-size="10" font-family="sans-serif" text-anchor="middle"><path class="domain" stroke="currentColor" d="M0,6V0H800V6"/><g class="tick" opacity="1" transform="translate(0,0)"><line stroke="currentColor" y2="6"/><text fill="currentColor" y="9" dy="0.71em">2,012</text></g><g class="tick" opacity="1" transform="translate(88.88888888888889,0)"><line stroke="currentColor" y2="6"/><text fill="currentColor" y="9" dy="0.71em">2,013</text></g><g class="tick" opacity="1" transform="translate(177.77777777777777,0)"><line stroke="currentColor" y2="6"/><text fill="currentColor" y="9" dy="0.71em">2,014</text></g><g class="tick" opacity="1" transform="translate(266.66666666666663,0)"><line stroke="currentColor" y2="6"/><text fill="currentColor" y="9" dy="0.71em">2,015</text></g><g class="tick" opacity="1" transform="translate(355.55555555555554,0)"><line stroke="currentColor" y2="6"/><text fill="currentColor" y="9" dy="0.71em">2,016</text></g><g class="tick" opacity="1" transform="translate(444.44444444444446,0)"><line stroke="currentColor" y2="6"/><text fill="currentColor" y="9" dy="0.71em">2,017</text></g><g class="tick" opacity="1" transform="translate(533.3333333333333,0)"><line stroke="currentColor" y2="6"/><text fill="currentColor" y="9" dy="0.71em">2,018</text></g><g class="tick" opacity="1" transform="translate(622.2222222222223,0)"><line stroke="currentColor" y2="6"/><text fill="currentColor" y="9" dy="0.71em">2,019</text></g><g class="tick" opacity="1" transform="translate(711.1111111111111,0)"><line stroke="currentColor" y2="6"/><text fill="currentColor" y="9" dy="0.71em">2,020</text></g><g class="tick" opacity="1" transform="translate(800,0)"><line stroke="currentColor" y2="6"/><text fill="currentColor" y="9" dy="0.71em">2,021</text></g><text x="800" dy="-5" text-anchor="end" style="font-family: Arial, sans-serif; font-size: 12px; fill: rgb(123, 123, 123); font-weight: bold;">Year</text></g><g transform="translate(0,0)" fill="none" font-size="10" font-family="sans-serif" text-anchor="end"><path class="domain" stroke="currentColor" d="M0,620V0"/><g class="tick" opacity="1" transform="translate(0,620)"><line stroke="currentColor" x2="-6"/><text fill="currentColor" x="-9" dy="0.32em">0</text></g><g class="tick" opacity="1" transform="translate(0,542.5)"><line stroke="currentColor" x2="-6"/><text fill="currentColor" x="-9" dy="0.32em">50,000</text></g><g class="tick" opacity="1" transform="translate(0,465)"><line stroke="currentColor" x2="-6"/><text fill="currentColor" x="-9" dy="0.32em">100,000</text></g><g class="tick" opacity="1" transform="translate(0,387.5)"><line stroke="currentColor" x2="-6"/><text fill="currentColor" x="-9" dy="0.32em">150,000</text></g><g class="tick" opacity="1" transform="translate(0,310)"><line stroke="currentColor" x2="-6"/><text fill="currentColor" x="-9" dy="0.32em">200,000</text></g><g class="tick" opacity="1" transform="translate(0,232.5)"><line stroke="currentColor" x2="-6"/><text fill="currentColor" x="-9" dy="0.32em">250,000</text></g><g class="tick" opacity="1" transform="translate(0,155)"><line stroke="currentColor" x2="-6"/><text fill="currentColor" x="-9" dy="0.32em">300,000</text></g><g class="tick" opacity="1" transform="translate(0,77.5)"><line stroke="currentColor" x2="-6"/><text fill="currentColor" x="-9" dy="0.32em">350,000</text></g><g class="tick" opacity="1" transform="translate(0,0)"><line stroke="currentColor" x2="-6"/><text fill="currentColor" x="-9" dy="0.32em">400,000</text></g><text x="4" text-anchor="start" dominant-baseline="hanging" style="font-family: Arial, sans-serif; font-size: 12px; fill: rgb(123, 123, 123); font-weight: bold;">Value</text></g></g><g id="viz"><g id="Australia"><path d="M0,614.299317C44.44444444444444,614.299317,44.44444444444444,613.404533,88.88888888888889,613.404533C133.33333333333331,613.404533,133.33333333333331,612.2195115000001,177.77777777777777,612.2195115000001C222.2222222222222,612.2195115000001,222.2222222222222,610.9765975,266.66666666666663,610.9765975C311.1111111111111,610.9765975,311.1111111111111,609.4445000000001,355.55555555555554,609.4445000000001C400,609.4445000000001,400,610.880203,444.44444444444446,610.880203C488.88888888888886,610.880203,488.88888888888886,610.433772,533.3333333333333,610.433772C577.7777777777778,610.433772,577.7777777777778,610.252825,622.2222222222223,610.252825C666.6666666666667,610.252825,666.6666666666667,610.5222615,711.1111111111111,610.5222615C755.5555555555555,610.5222615,755.5555555555555,610.402958,800,610.402958" stroke="#1f77b4" fill="none"/><text font-family="sans-serif" font-size="10" class="labels" x="800" y="610.402958" dx="5" dy="4" text-anchor="start">Australia</text></g><g id="Austria"><path d="M533.3333333333333,617.799C577.7777777777778,617.799,577.7777777777778,617.9075,622.2222222222223,617.9075C666.6666666666667,617.9075,666.6666666666667,617.5665,711.1111111111111,617.5665C755.5555555555555,617.5665,755.5555555555555,617.303,800,617.303" stroke="#1f77b4" fill="none"/><text font-family="sans-serif" font-size="10" class="labels" x="800" y="617.303" dx="5" dy="4" text-anchor="start">Austria</text></g><g id="Belgium"><path d="M533.3333333333333,619.07C577.7777777777778,619.07,577.7777777777778,618.915,622.2222222222223,618.915C666.6666666666667,618.915,666.6666666666667,619.07,711.1111111111111,619.07C755.5555555555555,619.07,755.5555555555555,618.7135,800,618.7135" stroke="#1f77b4" fill="none"/><text font-family="sans-serif" font-size="10" class="labels" x="800" y="618.7135" dx="5" dy="4" text-anchor="start">Belgium</text></g><g id="Bulgaria"><path d="M0,619.845C44.44444444444444,619.845,44.44444444444444,619.8457595,88.88888888888889,619.8457595C133.33333333333331,619.8457595,133.33333333333331,619.8480999999999,177.77777777777777,619.8480999999999C222.2222222222222,619.8480999999999,222.2222222222222,619.850115,266.66666666666663,619.850115C311.1111111111111,619.850115,311.1111111111111,619.846984,355.55555555555554,619.846984C400,619.846984,400,619.847263,444.44444444444446,619.847263C488.88888888888886,619.847263,488.88888888888886,619.845,533.3333333333333,619.845C622.2222222222222,619.845,622.2222222222222,619.876,711.1111111111111,619.876C755.5555555555555,619.876,755.5555555555555,619.8294999999999,800,619.8294999999999" stroke="#1f77b4" fill="none"/><text font-family="sans-serif" font-size="10" class="labels" x="800" y="619.8294999999999" dx="5" dy="4" text-anchor="start">Bulgaria</text></g><g id="Canada"><path d="M0,422.8803C44.44444444444444,422.8803,44.44444444444444,449.01484999999997,88.88888888888889,449.01484999999997C133.33333333333331,449.01484999999997,133.33333333333331,361.55454999999995,177.77777777777777,361.55454999999995C222.2222222222222,361.55454999999995,222.2222222222222,347.89905,266.66666666666663,347.89905C311.1111111111111,347.89905,311.1111111111111,292.65395,355.55555555555554,292.65395C400,292.65395,400,350.85644999999994,444.44444444444446,350.85644999999994C488.88888888888886,350.85644999999994,488.88888888888886,379.39504999999997,533.3333333333333,379.39504999999997C577.7777777777778,379.39504999999997,577.7777777777778,346.4405,622.2222222222223,346.4405C666.6666666666667,346.4405,666.6666666666667,389.87924999999996,711.1111111111111,389.87924999999996C755.5555555555555,389.87924999999996,755.5555555555555,392.84594999999996,800,392.84594999999996" stroke="#1f77b4" fill="none"/><text font-family="sans-serif" font-size="10" class="labels" x="800" y="392.84594999999996" dx="5" dy="4" text-anchor="start">Canada</text></g><g id="Chile"><path d="M0,499.09999999999997C44.44444444444444,499.09999999999997,44.44444444444444,492.90000000000003,88.88888888888889,492.90000000000003C133.33333333333331,492.90000000000003,133.33333333333331,483.6,177.77777777777777,483.6C222.2222222222222,483.6,222.2222222222222,475.84999999999997,266.66666666666663,475.84999999999997C311.1111111111111,475.84999999999997,311.1111111111111,440.2,355.55555555555554,440.2C400,440.2,400,472.75,444.44444444444446,472.75C488.88888888888886,472.75,488.88888888888886,424.70000000000005,533.3333333333333,424.70000000000005C577.7777777777778,424.70000000000005,577.7777777777778,386.771004,622.2222222222223,386.771004C666.6666666666667,386.771004,666.6666666666667,427.930541,711.1111111111111,427.930541C755.5555555555555,427.930541,755.5555555555555,429.668029,800,429.668029" stroke="#1f77b4" fill="none"/><text font-family="sans-serif" font-size="10" class="labels" x="800" y="429.668029" dx="5" dy="4" text-anchor="start">Chile</text></g><g id="Croatia"><path d="M533.3333333333333,619.5195C577.7777777777778,619.5195,577.7777777777778,619.442,622.2222222222223,619.442C666.6666666666667,619.442,666.6666666666667,618.884,711.1111111111111,618.884C755.5555555555555,618.884,755.5555555555555,619.163,800,619.163" stroke="#1f77b4" fill="none"/><text font-family="sans-serif" font-size="10" class="labels" x="800" y="619.163" dx="5" dy="4" text-anchor="start">Croatia</text></g><g id="Denmark"><path d="M0,619.91165C44.44444444444444,619.91165,44.44444444444444,619.9473,88.88888888888889,619.9473C133.33333333333331,619.9473,133.33333333333331,619.94575,177.77777777777777,619.94575C222.2222222222222,619.94575,222.2222222222222,619.94575,266.66666666666663,619.94575C311.1111111111111,619.94575,311.1111111111111,619.9473,355.55555555555554,619.9473C400,619.9473,400,619.938,444.44444444444446,619.938C488.88888888888886,619.938,488.88888888888886,619.845,533.3333333333333,619.845C577.7777777777778,619.845,577.7777777777778,619.7985,622.2222222222223,619.7985C666.6666666666667,619.7985,666.6666666666667,619.8294999999999,711.1111111111111,619.8294999999999C755.5555555555555,619.8294999999999,755.5555555555555,619.814,800,619.814" stroke="#1f77b4" fill="none"/><text font-family="sans-serif" font-size="10" class="labels" x="800" y="619.814" dx="5" dy="4" text-anchor="start">Denmark</text></g><g id="Finland"><path d="M533.3333333333333,619.7985C577.7777777777778,619.7985,577.7777777777778,619.69,622.2222222222223,619.69C666.6666666666667,619.69,666.6666666666667,619.7675,711.1111111111111,619.7675C755.5555555555555,619.7675,755.5555555555555,619.7055,800,619.7055" stroke="#1f77b4" fill="none"/><text font-family="sans-serif" font-size="10" class="labels" x="800" y="619.7055" dx="5" dy="4" text-anchor="start">Finland</text></g><g id="France"><path d="M0,607.35045C44.44444444444444,607.35045,44.44444444444444,605.8639999999999,88.88888888888889,605.8639999999999C133.33333333333331,605.8639999999999,133.33333333333331,604.097,177.77777777777777,604.097C222.2222222222222,604.097,222.2222222222222,605.09985,266.66666666666663,605.09985C311.1111111111111,605.09985,311.1111111111111,609.606475,355.55555555555554,609.606475C400,609.606475,400,606.831975,444.44444444444446,606.831975C488.88888888888886,606.831975,488.88888888888886,605.85315,533.3333333333333,605.85315C622.2222222222222,605.85315,622.2222222222222,607.78445,711.1111111111111,607.78445C755.5555555555555,607.78445,755.5555555555555,607.7302,800,607.7302" stroke="#1f77b4" fill="none"/><text font-family="sans-serif" font-size="10" class="labels" x="800" y="607.7302" dx="5" dy="4" text-anchor="start">France</text></g><g id="Germany"><path d="M0,606.29335C44.44444444444444,606.29335,44.44444444444444,604.07065,88.88888888888889,604.07065C133.33333333333331,604.07065,133.33333333333331,601.28065,177.77777777777777,601.28065C222.2222222222222,601.28065,222.2222222222222,601.48525,266.66666666666663,601.48525C311.1111111111111,601.48525,311.1111111111111,603.3995,355.55555555555554,603.3995C400,603.3995,400,598.60225,444.44444444444446,598.60225C488.88888888888886,598.60225,488.88888888888886,600.222,533.3333333333333,600.222C577.7777777777778,600.222,577.7777777777778,596.9825000000001,622.2222222222223,596.9825000000001C666.6666666666667,596.9825000000001,666.6666666666667,602.485,711.1111111111111,602.485C755.5555555555555,602.485,755.5555555555555,595.758,800,595.758" stroke="#1f77b4" fill="none"/><text font-family="sans-serif" font-size="10" class="labels" x="800" y="595.758" dx="5" dy="4" text-anchor="start">Germany</text></g><g id="Hungary"><path d="M533.3333333333333,619.9535C577.7777777777778,619.9535,577.7777777777778,619.938,622.2222222222223,619.938C666.6666666666667,619.938,666.6666666666667,619.938,711.1111111111111,619.938C755.5555555555555,619.938,755.5555555555555,619.9225,800,619.9225" stroke="#1f77b4" fill="none"/><text font-family="sans-serif" font-size="10" class="labels" x="800" y="619.9225" dx="5" dy="4" text-anchor="start">Hungary</text></g><g id="Italy"><path d="M0,617.466525C44.44444444444444,617.466525,44.44444444444444,617.4494285,88.88888888888889,617.4494285C133.33333333333331,617.4494285,133.33333333333331,617.4204745000001,177.77777777777777,617.4204745000001C222.2222222222222,617.4204745000001,222.2222222222222,617.393024,266.66666666666663,617.393024C311.1111111111111,617.393024,311.1111111111111,617.415468,355.55555555555554,617.415468C400,617.415468,400,617.4093144999999,444.44444444444446,617.4093144999999C577.7777777777778,617.4093144999999,577.7777777777778,609.5375,711.1111111111111,609.5375C755.5555555555555,609.5375,755.5555555555555,606.4375,800,606.4375" stroke="#1f77b4" fill="none"/><text font-family="sans-serif" font-size="10" class="labels" x="800" y="606.4375" dx="5" dy="4" text-anchor="start">Italy</text></g><g id="Latvia"><path d="M0,619.8667C44.44444444444444,619.8667,44.44444444444444,619.82795,88.88888888888889,619.82795C133.33333333333331,619.82795,133.33333333333331,619.31645,177.77777777777777,619.31645C222.2222222222222,619.31645,222.2222222222222,619.6279999999999,266.66666666666663,619.6279999999999C311.1111111111111,619.6279999999999,311.1111111111111,619.58615,355.55555555555554,619.58615C400,619.58615,400,619.45285,444.44444444444446,619.45285C488.88888888888886,619.45285,488.88888888888886,619.225,533.3333333333333,619.225C577.7777777777778,619.225,577.7777777777778,619.2715,622.2222222222223,619.2715C666.6666666666667,619.2715,666.6666666666667,618.915,711.1111111111111,618.915C755.5555555555555,618.915,755.5555555555555,619.225,800,619.225" stroke="#1f77b4" fill="none"/><text font-family="sans-serif" font-size="10" class="labels" x="800" y="619.225" dx="5" dy="4" text-anchor="start">Latvia</text></g><g id="Lithuania"><path d="M0,618.76C44.44444444444444,618.76,44.44444444444444,619.07,88.88888888888889,619.07C133.33333333333331,619.07,133.33333333333331,619.07,177.77777777777777,619.07C222.2222222222222,619.07,222.2222222222222,619.82485,266.66666666666663,619.82485C311.1111111111111,619.82485,311.1111111111111,619.8589499999999,355.55555555555554,619.8589499999999C400,619.8589499999999,400,619.8077999999999,444.44444444444446,619.8077999999999C488.88888888888886,619.8077999999999,488.88888888888886,619.845,533.3333333333333,619.845C577.7777777777778,619.845,577.7777777777778,619.3645,622.2222222222223,619.3645C666.6666666666667,619.3645,666.6666666666667,616.3729999999999,711.1111111111111,616.3729999999999C755.5555555555555,616.3729999999999,755.5555555555555,617.148,800,617.148" stroke="#1f77b4" fill="none"/><text font-family="sans-serif" font-size="10" class="labels" x="800" y="617.148" dx="5" dy="4" text-anchor="start">Lithuania</text></g><g id="Mexico"><path d="M0,608.85395C44.44444444444444,608.85395,44.44444444444444,604.2520000000001,88.88888888888889,604.2520000000001C133.33333333333331,604.2520000000001,133.33333333333331,592.0513145,177.77777777777777,592.0513145C222.2222222222222,592.0513145,222.2222222222222,595.992763,266.66666666666663,595.992763C311.1111111111111,595.992763,311.1111111111111,574.9466305,355.55555555555554,574.9466305C400,574.9466305,400,563.115465,444.44444444444446,563.115465C488.88888888888886,563.115465,488.88888888888886,557.610423,533.3333333333333,557.610423C577.7777777777778,557.610423,577.7777777777778,544.052201,622.2222222222223,544.052201C666.6666666666667,544.052201,666.6666666666667,542.0464235000001,711.1111111111111,542.0464235000001C755.5555555555555,542.0464235000001,755.5555555555555,516.9536439999999,800,516.9536439999999" stroke="#1f77b4" fill="none"/><text font-family="sans-serif" font-size="10" class="labels" x="800" y="516.9536439999999" dx="5" dy="4" text-anchor="start">Mexico</text></g><g id="Morocco"><path d="M0,619.8946C44.44444444444444,619.8946,44.44444444444444,619.8941505,88.88888888888889,619.8941505C133.33333333333331,619.8941505,133.33333333333331,619.893577,177.77777777777777,619.893577C222.2222222222222,619.893577,222.2222222222222,619.8852845,266.66666666666663,619.8852845C311.1111111111111,619.8852845,311.1111111111111,619.8910040000001,355.55555555555554,619.8910040000001C400,619.8910040000001,400,619.8910970000001,444.44444444444446,619.8910970000001C488.88888888888886,619.8910970000001,488.88888888888886,619.8891285,533.3333333333333,619.8891285C577.7777777777778,619.8891285,577.7777777777778,619.8904150000001,622.2222222222223,619.8904150000001C666.6666666666667,619.8904150000001,666.6666666666667,619.8902135000001,711.1111111111111,619.8902135000001C755.5555555555555,619.8902135000001,755.5555555555555,619.889919,800,619.889919" stroke="#1f77b4" fill="none"/><text font-family="sans-serif" font-size="10" class="labels" x="800" y="619.889919" dx="5" dy="4" text-anchor="start">Morocco</text></g><g id="Netherlands"><path d="M0,610.7C44.44444444444444,610.7,44.44444444444444,611.253257,88.88888888888889,611.253257C133.33333333333331,611.253257,133.33333333333331,610.08,177.77777777777777,610.08C222.2222222222222,610.08,222.2222222222222,607.985981,266.66666666666663,607.985981C311.1111111111111,607.985981,311.1111111111111,605.924698,355.55555555555554,605.924698C400,605.924698,400,606.151184,444.44444444444446,606.151184C488.88888888888886,606.151184,488.88888888888886,605.585,533.3333333333333,605.585C577.7777777777778,605.585,577.7777777777778,602.8570000000001,622.2222222222223,602.8570000000001C666.6666666666667,602.8570000000001,666.6666666666667,605.74,711.1111111111111,605.74C755.5555555555555,605.74,755.5555555555555,606.825,800,606.825" stroke="#1f77b4" fill="none"/><text font-family="sans-serif" font-size="10" class="labels" x="800" y="606.825" dx="5" dy="4" text-anchor="start">Netherlands</text></g><g id="New Zealand"><path d="M0,615.97C44.44444444444444,615.97,44.44444444444444,615.684986,88.88888888888889,615.684986C133.33333333333331,615.684986,133.33333333333331,615.35,177.77777777777777,615.35C222.2222222222222,615.35,222.2222222222222,615.330501,266.66666666666663,615.330501C311.1111111111111,615.330501,311.1111111111111,615.2368655,355.55555555555554,615.2368655C400,615.2368655,400,615.258829,444.44444444444446,615.258829C488.88888888888886,615.258829,488.88888888888886,614.823496,533.3333333333333,614.823496C577.7777777777778,614.823496,577.7777777777778,614.328364,622.2222222222223,614.328364C666.6666666666667,614.328364,666.6666666666667,614.293303,711.1111111111111,614.293303C755.5555555555555,614.293303,755.5555555555555,614.295814,800,614.295814" stroke="#1f77b4" fill="none"/><text font-family="sans-serif" font-size="10" class="labels" x="800" y="614.295814" dx="5" dy="4" text-anchor="start">New Zealand</text></g><g id="Norway"><path d="M0,619.94575C44.44444444444444,619.94575,44.44444444444444,619.95815,88.88888888888889,619.95815C133.33333333333331,619.95815,133.33333333333331,619.9953499999999,177.77777777777777,619.9953499999999C222.2222222222222,619.9953499999999,222.2222222222222,619.9938000000001,266.66666666666663,619.9938000000001C311.1111111111111,619.9938000000001,311.1111111111111,619.98605,355.55555555555554,619.98605C400,619.98605,400,619.9535,444.44444444444446,619.9535C488.88888888888886,619.9535,488.88888888888886,619.9597,533.3333333333333,619.9597C577.7777777777778,619.9597,577.7777777777778,619.9411,622.2222222222223,619.9411C666.6666666666667,619.9411,666.6666666666667,619.96435,711.1111111111111,619.96435C755.5555555555555,619.96435,755.5555555555555,619.938,800,619.938" stroke="#1f77b4" fill="none"/><text font-family="sans-serif" font-size="10" class="labels" x="800" y="619.938" dx="5" dy="4" text-anchor="start">Norway</text></g><g id="Peru"><path d="M0,619.1320000000001C44.44444444444444,619.1320000000001,44.44444444444444,617.4146,88.88888888888889,617.4146C133.33333333333331,617.4146,133.33333333333331,616.125,177.77777777777777,616.125C222.2222222222222,616.125,222.2222222222222,603.59325,266.66666666666663,603.59325C311.1111111111111,603.59325,311.1111111111111,584.3836505,355.55555555555554,584.3836505C400,584.3836505,400,538.93345,444.44444444444446,538.93345C488.88888888888886,538.93345,488.88888888888886,473.05225,533.3333333333333,473.05225C577.7777777777778,473.05225,577.7777777777778,390.755,622.2222222222223,390.755C666.6666666666667,390.755,666.6666666666667,342.07725,711.1111111111111,342.07725C755.5555555555555,342.07725,755.5555555555555,266.64495,800,266.64495" stroke="#1f77b4" fill="none"/><text font-family="sans-serif" font-size="10" class="labels" x="800" y="266.64495" dx="5" dy="4" text-anchor="start">Peru</text></g><g id="Poland"><path d="M0,602.56095C44.44444444444444,602.56095,44.44444444444444,600.26695,88.88888888888889,600.26695C133.33333333333331,600.26695,133.33333333333331,600.67305,177.77777777777777,600.67305C222.2222222222222,600.67305,222.2222222222222,598.1264,266.66666666666663,598.1264C311.1111111111111,598.1264,311.1111111111111,597.18245,355.55555555555554,597.18245C400,597.18245,400,594.66835,444.44444444444446,594.66835C488.88888888888886,594.66835,488.88888888888886,580.785,533.3333333333333,580.785C577.7777777777778,580.785,577.7777777777778,566.1065,622.2222222222223,566.1065C666.6666666666667,566.1065,666.6666666666667,534.285,711.1111111111111,534.285C755.5555555555555,534.285,755.5555555555555,534.285,800,534.285" stroke="#1f77b4" fill="none"/><text font-family="sans-serif" font-size="10" class="labels" x="800" y="534.285" dx="5" dy="4" text-anchor="start">Poland</text></g><g id="Portugal"><path d="M0,617.7734095C44.44444444444444,617.7734095,44.44444444444444,617.7854065,88.88888888888889,617.7854065C133.33333333333331,617.7854065,133.33333333333331,617.1732495,177.77777777777777,617.1732495C222.2222222222222,617.1732495,222.2222222222222,613.1249594999999,266.66666666666663,613.1249594999999C311.1111111111111,613.1249594999999,311.1111111111111,609.8134,355.55555555555554,609.8134C400,609.8134,400,604.748,444.44444444444446,604.748C488.88888888888886,604.748,488.88888888888886,602.8570000000001,533.3333333333333,602.8570000000001C577.7777777777778,602.8570000000001,577.7777777777778,596.502,622.2222222222223,596.502C666.6666666666667,596.502,666.6666666666667,596.099,711.1111111111111,596.099C755.5555555555555,596.099,755.5555555555555,593.433,800,593.433" stroke="#1f77b4" fill="none"/><text font-family="sans-serif" font-size="10" class="labels" x="800" y="593.433" dx="5" dy="4" text-anchor="start">Portugal</text></g><g id="Romania"><path d="M0,618.0582685C44.44444444444444,618.0582685,44.44444444444444,618.2954805,88.88888888888889,618.2954805C133.33333333333331,618.2954805,133.33333333333331,618.024711,177.77777777777777,618.024711C222.2222222222222,618.024711,222.2222222222222,619.504,266.66666666666663,619.504C311.1111111111111,619.504,311.1111111111111,619.5381,355.55555555555554,619.5381C400,619.5381,400,619.47455,444.44444444444446,619.47455C488.88888888888886,619.47455,488.88888888888886,618.9925000000001,533.3333333333333,618.9925000000001C577.7777777777778,618.9925000000001,577.7777777777778,619.0545,622.2222222222223,619.0545C666.6666666666667,619.0545,666.6666666666667,618.1865,711.1111111111111,618.1865C755.5555555555555,618.1865,755.5555555555555,617.0085,800,617.0085" stroke="#1f77b4" fill="none"/><text font-family="sans-serif" font-size="10" class="labels" x="800" y="617.0085" dx="5" dy="4" text-anchor="start">Romania</text></g><g id="Russian Federation"><path d="M0,616.28C44.44444444444444,616.28,44.44444444444444,616.125,88.88888888888889,616.125C133.33333333333331,616.125,133.33333333333331,616.125,177.77777777777777,616.125C222.2222222222222,616.125,222.2222222222222,616.28,266.66666666666663,616.28C311.1111111111111,616.28,311.1111111111111,615.35,355.55555555555554,615.35C400,615.35,400,615.8149999999999,444.44444444444446,615.8149999999999C488.88888888888886,615.8149999999999,488.88888888888886,614.885,533.3333333333333,614.885C577.7777777777778,614.885,577.7777777777778,614.5749999999999,622.2222222222223,614.5749999999999C666.6666666666667,614.5749999999999,666.6666666666667,614.42,711.1111111111111,614.42C755.5555555555555,614.42,755.5555555555555,613.8,800,613.8" stroke="#1f77b4" fill="none"/><text font-family="sans-serif" font-size="10" class="labels" x="800" y="613.8" dx="5" dy="4" text-anchor="start">Russian Federation</text></g><g id="Slovakia"><path d="M533.3333333333333,619.9225C577.7777777777778,619.9225,577.7777777777778,619.7985,622.2222222222223,619.7985C666.6666666666667,619.7985,666.6666666666667,619.8294999999999,711.1111111111111,619.8294999999999C755.5555555555555,619.8294999999999,755.5555555555555,619.721,800,619.721" stroke="#1f77b4" fill="none"/><text font-family="sans-serif" font-size="10" class="labels" x="800" y="619.721" dx="5" dy="4" text-anchor="start">Slovakia</text></g><g id="Slovenia"><path d="M533.3333333333333,619.5195C577.7777777777778,619.5195,577.7777777777778,619.5505,622.2222222222223,619.5505C666.6666666666667,619.5505,666.6666666666667,619.349,711.1111111111111,619.349C755.5555555555555,619.349,755.5555555555555,619.597,800,619.597" stroke="#1f77b4" fill="none"/><text font-family="sans-serif" font-size="10" class="labels" x="800" y="619.597" dx="5" dy="4" text-anchor="start">Slovenia</text></g><g id="Spain"><path d="M0,609.1200385C44.44444444444444,609.1200385,44.44444444444444,601.5370355,88.88888888888889,601.5370355C133.33333333333331,601.5370355,133.33333333333331,587.357,177.77777777777777,587.357C222.2222222222222,587.357,222.2222222222222,587.357,266.66666666666663,587.357C311.1111111111111,587.357,311.1111111111111,581.33525,355.55555555555554,581.33525C400,581.33525,400,565.19975,444.44444444444446,565.19975C488.88888888888886,565.19975,488.88888888888886,552.544,533.3333333333333,552.544C577.7777777777778,552.544,577.7777777777778,537.261,622.2222222222223,537.261C666.6666666666667,537.261,666.6666666666667,544.794,711.1111111111111,544.794C755.5555555555555,544.794,755.5555555555555,525.0935000000001,800,525.0935000000001" stroke="#1f77b4" fill="none"/><text font-family="sans-serif" font-size="10" class="labels" x="800" y="525.0935000000001" dx="5" dy="4" text-anchor="start">Spain</text></g><g id="Sweden"><path d="M0,619.938C44.44444444444444,619.938,44.44444444444444,619.938,88.88888888888889,619.938C133.33333333333331,619.938,133.33333333333331,619.907,177.77777777777777,619.907C222.2222222222222,619.907,222.2222222222222,619.907,266.66666666666663,619.907C311.1111111111111,619.907,311.1111111111111,619.907,355.55555555555554,619.907C400,619.907,400,619.8915,444.44444444444446,619.8915C488.88888888888886,619.8915,488.88888888888886,619.876,533.3333333333333,619.876C577.7777777777778,619.876,577.7777777777778,619.8605,622.2222222222223,619.8605C666.6666666666667,619.8605,666.6666666666667,619.8605,711.1111111111111,619.8605C755.5555555555555,619.8605,755.5555555555555,619.845,800,619.845" stroke="#1f77b4" fill="none"/><text font-family="sans-serif" font-size="10" class="labels" x="800" y="619.845" dx="5" dy="4" text-anchor="start">Sweden</text></g><g id="Switzerland"><path d="M0,619.48695C44.44444444444444,619.48695,44.44444444444444,619.5226,88.88888888888889,619.5226C133.33333333333331,619.5226,133.33333333333331,619.2901,177.77777777777777,619.2901C222.2222222222222,619.2901,222.2222222222222,619.3645,266.66666666666663,619.3645C311.1111111111111,619.3645,311.1111111111111,619.50245,355.55555555555554,619.50245C400,619.50245,400,619.55515,444.44444444444446,619.55515C488.88888888888886,619.55515,488.88888888888886,619.4327,533.3333333333333,619.4327C577.7777777777778,619.4327,577.7777777777778,619.13045,622.2222222222223,619.13045C666.6666666666667,619.13045,666.6666666666667,619.1475,711.1111111111111,619.1475C755.5555555555555,619.1475,755.5555555555555,618.946,800,618.946" stroke="#1f77b4" fill="none"/><text font-family="sans-serif" font-size="10" class="labels" x="800" y="618.946" dx="5" dy="4" text-anchor="start">Switzerland</text></g><g id="Ukraine"><path d="M0,618.14C44.44444444444444,618.14,44.44444444444444,617.985,88.88888888888889,617.985C133.33333333333331,617.985,133.33333333333331,618.915,177.77777777777777,618.915C222.2222222222222,618.915,222.2222222222222,619.07,266.66666666666663,619.07C311.1111111111111,619.07,311.1111111111111,618.047,355.55555555555554,618.047C400,618.047,400,617.892,444.44444444444446,617.892C488.88888888888886,617.892,488.88888888888886,618.171,533.3333333333333,618.171C577.7777777777778,618.171,577.7777777777778,616.2955000000001,622.2222222222223,616.2955000000001C666.6666666666667,616.2955000000001,666.6666666666667,619.07,711.1111111111111,619.07C755.5555555555555,619.07,755.5555555555555,619.783,800,619.783" stroke="#1f77b4" fill="none"/><text font-family="sans-serif" font-size="10" class="labels" x="800" y="619.783" dx="5" dy="4" text-anchor="start">Ukraine</text></g><g id="United States of America"><path d="M0,291.1396C44.44444444444444,291.1396,44.44444444444444,237.83354999999997,88.88888888888889,237.83354999999997C133.33333333333331,237.83354999999997,133.33333333333331,213.12810000000002,177.77777777777777,213.12810000000002C222.2222222222222,213.12810000000002,222.2222222222222,226.28140000000002,266.66666666666663,226.28140000000002C311.1111111111111,226.28140000000002,311.1111111111111,202.65165000000002,355.55555555555554,202.65165000000002C400,202.65165000000002,400,255.4245,444.44444444444446,255.4245C488.88888888888886,255.4245,488.88888888888886,224.6725,533.3333333333333,224.6725C577.7777777777778,224.6725,577.7777777777778,89.54350000000002,622.2222222222223,89.54350000000002C666.6666666666667,89.54350000000002,666.6666666666667,130.94400000000005,711.1111111111111,130.94400000000005C755.5555555555555,130.94400000000005,755.5555555555555,75.74850000000002,800,75.74850000000002" stroke="#1f77b4" fill="none"/><text font-family="sans-serif" font-size="10" class="labels" x="800" y="75.74850000000002" dx="5" dy="4" text-anchor="start">United States of America</text></g><g id="Uzbekistan"><path d="M0,618.915C44.44444444444444,618.915,44.44444444444444,619.07,88.88888888888889,619.07C133.33333333333331,619.07,133.33333333333331,619.07,177.77777777777777,619.07C222.2222222222222,619.07,222.2222222222222,618.915,266.66666666666663,618.915C311.1111111111111,618.915,311.1111111111111,619.0183385,355.55555555555554,619.0183385C400,619.0183385,400,618.9870129999999,444.44444444444446,618.9870129999999C488.88888888888886,618.9870129999999,488.88888888888886,618.9531765,533.3333333333333,618.9531765C577.7777777777778,618.9531765,577.7777777777778,618.986176,622.2222222222223,618.986176C666.6666666666667,618.986176,666.6666666666667,618.97545,711.1111111111111,618.97545C755.5555555555555,618.97545,755.5555555555555,618.9715905,800,618.9715905" stroke="#1f77b4" fill="none"/><text font-family="sans-serif" font-size="10" class="labels" x="800" y="618.9715905" dx="5" dy="4" text-anchor="start">Uzbekistan</text></g></g></g><text y="4" x="4" style="font-family: Arial, sans-serif; font-size: 12px; fill: black; font-weight: bold; dominant-baseline: hanging;"/></g><g id="grid"><rect x="0" y="0" width="950" height="650" fill="none" stroke="#ccc"/></g></g></svg>